<svg width="13" height="13" viewBox="0 0 13 13" fill="none" xmlns="http://www.w3.org/2000/svg">
<path d="M0.266547 7.09121C0.547845 7.45981 0.693344 7.46951 5.41722 7.46951C7.9586 7.46951 10.0344 7.4889 10.0344 7.518C10.0344 7.5471 9.33599 8.3716 8.4824 9.34159C7.02741 11.0003 6.93041 11.1264 6.93041 11.5047C6.93041 12.1643 7.5318 12.562 8.1138 12.271C8.4727 12.0964 12.7407 7.24641 12.8862 6.85841C12.9347 6.73231 12.9444 6.51891 12.9153 6.38311C12.8377 6.07271 8.4436 1.05784 8.1041 0.902643C7.5609 0.640745 6.93041 1.04814 6.93041 1.64954C6.93041 2.07634 6.94011 2.09574 8.6958 4.09392C9.43299 4.92812 10.0344 5.63622 10.0344 5.66532C10.0344 5.69442 7.9586 5.72352 5.42692 5.72352C0.567245 5.72352 0.363546 5.74292 0.198647 6.16001C0.101648 6.42191 0.140448 6.92631 0.266547 7.09121Z" fill="#FF007A"/>
</svg>
