<svg width="17" height="16" viewBox="0 0 17 16" fill="none" xmlns="http://www.w3.org/2000/svg">
<path d="M5.11238 0.48118C2.84194 0.593794 1.03286 2.17039 0.509749 4.49168C0.397136 5.00753 0.378972 5.93023 0.473422 6.48967C0.636894 7.4378 1.01469 8.27696 1.60683 8.99623C1.82479 9.26142 7.66254 15.2408 7.83328 15.3753C8.19291 15.6586 8.89766 15.6586 9.25729 15.3753C9.45709 15.219 15.2839 9.23962 15.5164 8.94901C16.8024 7.36878 17.0494 5.14557 16.1522 3.25656C15.4801 1.83618 14.0997 0.797226 12.5449 0.535671C12.0981 0.459384 11.2371 0.459384 10.8121 0.532039C10.14 0.651917 9.36628 0.975228 8.81411 1.37119L8.54529 1.56373L8.2474 1.3494C7.34286 0.702775 6.32934 0.419425 5.11238 0.48118ZM6.19129 1.74899C6.70714 1.85797 7.25568 2.10863 7.65527 2.41378C7.73519 2.47553 7.96769 2.68623 8.17112 2.88966L8.54165 3.25293L8.95215 2.85333C9.17737 2.63537 9.45346 2.39561 9.56607 2.32296C10.0383 2.01418 10.5832 1.79622 11.0991 1.71267C11.4841 1.65091 12.2615 1.6836 12.6212 1.77806C14.1142 2.17765 15.1931 3.39097 15.4474 4.95667C15.5019 5.29088 15.491 6.02468 15.4293 6.34799C15.313 6.95829 15.0442 7.57585 14.6918 8.04446C14.5102 8.28422 8.59978 14.3726 8.54529 14.3726C8.49443 14.3726 2.58039 8.28422 2.40602 8.0481C2.04275 7.56858 1.77756 6.95465 1.66132 6.35163C1.59956 6.02105 1.58866 5.29088 1.64315 4.94577C1.7703 4.15384 2.19532 3.30742 2.7366 2.76615C3.63387 1.86887 4.93801 1.48381 6.19129 1.74899Z" fill="white"/>
</svg>
