<svg width="20" height="16" viewBox="0 0 20 16" fill="none" xmlns="http://www.w3.org/2000/svg">
<path d="M13.2378 1.00672C13.1797 1.01762 11.5195 1.58795 9.54698 2.27453L5.96514 3.52418H4.66826C3.62931 3.52418 3.3169 3.53508 3.09167 3.5823C1.92921 3.81843 1.0065 4.7811 0.643232 6.13246C0.537884 6.53206 0.512455 7.41844 0.592374 7.86163C0.675926 8.29755 0.86846 8.81703 1.07552 9.1694C1.28622 9.52177 1.87472 10.1321 2.1835 10.3137C2.63395 10.5753 3.1171 10.7169 3.58209 10.7169H3.84727L3.85454 12.7222C3.86544 14.6657 3.86907 14.7347 3.93809 14.8291C4.0834 15.0289 4.2505 15.0762 4.8281 15.0762C5.28219 15.0762 5.36938 15.0653 5.50379 14.9999C5.79077 14.8618 5.91065 14.5276 5.77987 14.2334C5.68179 14.0118 5.52195 13.9028 5.25676 13.8846L5.04607 13.8701V12.2935V10.7169H5.49652H5.94698L9.4489 11.9375C11.3706 12.6132 13.038 13.1835 13.147 13.209C13.5902 13.3179 14.1097 13.2417 14.4911 13.0092C14.9452 12.7331 15.2721 12.3226 15.4647 11.774L15.5627 11.498L15.5736 7.24044C15.5845 2.47796 15.5954 2.70682 15.3266 2.14739C15.2104 1.90763 15.1195 1.78412 14.898 1.56252C14.4257 1.09027 13.8881 0.91227 13.2378 1.00672ZM13.819 2.2491C13.9934 2.32902 14.1823 2.53245 14.2877 2.75768C14.3639 2.92479 14.3639 2.93205 14.3639 7.12056V11.3163L14.2768 11.5052C14.1896 11.705 13.9389 11.9666 13.7791 12.0247C13.7282 12.0465 13.6374 12.061 13.5756 12.061C13.4957 12.061 7.40369 9.96859 6.73164 9.71067C6.68805 9.69614 6.68078 9.33287 6.68078 7.12056V4.55224L8.01761 4.08725C8.75142 3.82933 10.2735 3.29532 11.4033 2.90299C12.5331 2.50703 13.5066 2.18371 13.5647 2.18371C13.6265 2.18371 13.7391 2.21278 13.819 2.2491ZM5.48199 7.12056V9.51814H4.4503C3.52396 9.51814 3.39682 9.51087 3.18976 9.44549C2.68844 9.28928 2.26342 8.88605 2.00186 8.31935C1.81296 7.91975 1.74031 7.57828 1.74031 7.12056C1.74031 6.6483 1.81659 6.3141 2.01639 5.89634C2.27431 5.3587 2.67028 4.9809 3.15343 4.81016C3.38229 4.72661 3.43678 4.72297 4.4394 4.72297H5.48199V7.12056Z" fill="white"/>
<path d="M8.20664 6.07425C8.10129 6.12874 8.01411 6.20866 7.95962 6.30311C7.88333 6.44479 7.8797 6.47748 7.88696 7.21129C7.89786 7.95236 7.90149 7.97779 7.98505 8.09767C8.08313 8.23208 8.31199 8.35196 8.47909 8.35559C8.66073 8.35559 8.90412 8.21028 8.99494 8.04681C9.07122 7.90877 9.07849 7.85791 9.07849 7.17496C9.07849 6.49202 9.07122 6.44116 8.99494 6.30311C8.90412 6.13964 8.66073 5.99433 8.47909 5.99433C8.41734 5.99433 8.29383 6.03066 8.20664 6.07425Z" fill="white"/>
<path d="M17.7059 1.67879C17.3862 1.82046 17.0811 1.96577 17.0302 2.0021C16.7142 2.22369 16.765 2.81946 17.1101 3.00109C17.3354 3.11734 17.5279 3.08101 18.1672 2.79766C18.8575 2.49251 19.01 2.369 19.05 2.09292C19.0827 1.88222 18.9628 1.62067 18.7812 1.50079C18.5559 1.35185 18.3707 1.38091 17.7059 1.67879Z" fill="white"/>
<path d="M17.1139 6.60098C16.9141 6.69906 16.8342 6.848 16.8342 7.12045C16.8342 7.30935 16.8524 7.38201 16.9178 7.47646C17.0813 7.70532 17.1503 7.71985 17.9785 7.71985C18.6651 7.71985 18.7341 7.71258 18.8504 7.64356C19.0502 7.52732 19.141 7.36384 19.141 7.12409C19.141 6.88433 19.0574 6.72086 18.8794 6.61187C18.7705 6.54649 18.6942 6.53922 17.9967 6.53922C17.3682 6.53922 17.212 6.55012 17.1139 6.60098Z" fill="white"/>
<path d="M17.0776 11.2618C16.7652 11.4507 16.7144 11.9702 16.9868 12.2136C17.0231 12.2463 17.3283 12.3988 17.6625 12.5478C18.1711 12.7766 18.3055 12.8239 18.4617 12.8239C18.8613 12.8239 19.1337 12.4787 19.032 12.0973C18.963 11.8467 18.8468 11.7558 18.1892 11.4616C17.5063 11.1564 17.3101 11.1201 17.0776 11.2618Z" fill="white"/>
</svg>
