<svg width="35" height="35" viewBox="0 0 35 35" fill="none" xmlns="http://www.w3.org/2000/svg">
<rect width="35" height="35" rx="17.5" fill="white"/>
<rect width="35" height="35" rx="17.5" fill="#081A20"/>
<rect x="0.550623" y="0.550623" width="33.8988" height="33.8988" rx="16.9494" stroke="white" stroke-opacity="0.2" stroke-width="1.10125"/>
<path d="M16.4365 20.458V19.8779C16.4365 19.4795 16.5361 19.0869 16.7354 18.7002C16.9404 18.3135 17.1865 17.9678 17.4736 17.6631C17.7607 17.3584 18.0479 17.0596 18.335 16.7666C18.6221 16.4678 18.8652 16.1484 19.0645 15.8086C19.2695 15.4629 19.3721 15.1201 19.3721 14.7803C19.3721 14.2471 19.1699 13.8105 18.7656 13.4707C18.3613 13.125 17.8486 12.9521 17.2275 12.9521C16.6533 12.9521 16.1055 13.1016 15.584 13.4004C15.0625 13.6992 14.6201 14.1123 14.2568 14.6396L13.1758 13.5762C13.6445 12.8848 14.2451 12.3428 14.9775 11.9502C15.71 11.5576 16.4922 11.3613 17.3242 11.3613C18.3906 11.3613 19.2754 11.6777 19.9785 12.3105C20.6875 12.9434 21.042 13.7256 21.042 14.6572C21.042 14.9971 20.9863 15.3281 20.875 15.6504C20.7637 15.9727 20.6201 16.2598 20.4443 16.5117C20.2744 16.7637 20.0811 17.0098 19.8643 17.25C19.6533 17.4902 19.4395 17.7188 19.2227 17.9355C19.0117 18.1523 18.8184 18.3633 18.6426 18.5684C18.4727 18.7734 18.332 18.9902 18.2207 19.2188C18.1094 19.4414 18.0537 19.6611 18.0537 19.8779V20.458H16.4365ZM18.0537 23.8066C17.8369 24.0176 17.5674 24.123 17.2451 24.123C16.9229 24.123 16.6533 24.0176 16.4365 23.8066C16.2197 23.5898 16.1113 23.3232 16.1113 23.0068C16.1113 22.6846 16.2197 22.415 16.4365 22.1982C16.6533 21.9814 16.9229 21.873 17.2451 21.873C17.5674 21.873 17.8369 21.9814 18.0537 22.1982C18.2705 22.415 18.3789 22.6846 18.3789 23.0068C18.3789 23.3232 18.2705 23.5898 18.0537 23.8066Z" fill="white"/>
</svg>
