<svg width="62" height="62" viewBox="0 0 62 62" fill="none" xmlns="http://www.w3.org/2000/svg">
<g opacity="0.3" filter="url(#filter0_b_575_1537)">
<path d="M0.635531 30.5055C0.635531 14.0088 14.0088 0.635531 30.5055 0.635531H47.0293C54.4002 0.635531 60.3755 6.61081 60.3755 13.9817V47.0293C60.3755 54.4002 54.4002 60.3755 47.0293 60.3755H30.5055C14.0088 60.3755 0.635531 47.0022 0.635531 30.5055Z" stroke="white" stroke-opacity="0.5" stroke-width="1.27106"/>
</g>
<path d="M36.878 31.7235C36.5967 32.0921 36.4512 32.1018 31.7273 32.1018C29.1859 32.1018 27.1101 32.1212 27.1101 32.1503C27.1101 32.1794 27.8085 33.0039 28.6621 33.9739C30.1171 35.6326 30.2141 35.7587 30.2141 36.137C30.2141 36.7966 29.6127 37.1943 29.0307 36.9033C28.6718 36.7287 24.4039 31.8787 24.2584 31.4907C24.2099 31.3646 24.2002 31.1512 24.2293 31.0154C24.3069 30.705 28.7009 25.6902 29.0404 25.535C29.5836 25.2731 30.2141 25.6805 30.2141 26.2819C30.2141 26.7087 30.2044 26.7281 28.4487 28.7262C27.7115 29.5604 27.1101 30.2685 27.1101 30.2976C27.1101 30.3267 29.1859 30.3558 31.7176 30.3558C36.5773 30.3558 36.781 30.3752 36.9459 30.7923C37.0429 31.0542 37.0041 31.5586 36.878 31.7235Z" fill="white"/>
<defs>
<filter id="filter0_b_575_1537" x="-13.9817" y="-13.9817" width="88.9741" height="88.9744" filterUnits="userSpaceOnUse" color-interpolation-filters="sRGB">
<feFlood flood-opacity="0" result="BackgroundImageFix"/>
<feGaussianBlur in="BackgroundImageFix" stdDeviation="6.99084"/>
<feComposite in2="SourceAlpha" operator="in" result="effect1_backgroundBlur_575_1537"/>
<feBlend mode="normal" in="SourceGraphic" in2="effect1_backgroundBlur_575_1537" result="shape"/>
</filter>
</defs>
</svg>
