<svg width="62" height="62" viewBox="0 0 62 62" fill="none" xmlns="http://www.w3.org/2000/svg">
<g opacity="0.3" filter="url(#filter0_b_789_2574)">
<path d="M0.635531 13.9817C0.635531 6.61081 6.61081 0.635531 13.9817 0.635531H43.011C52.6011 0.635531 60.3755 8.40987 60.3755 18V45.011C60.3755 53.4966 53.4966 60.3755 45.011 60.3755H13.9817C6.61081 60.3755 0.635531 54.4002 0.635531 47.0293V13.9817Z" stroke="white" stroke-opacity="0.5" stroke-width="1.27106"/>
</g>
<path d="M24.3349 31.7235C24.6162 32.0921 24.7617 32.1018 29.4856 32.1018C32.027 32.1018 34.1027 32.1212 34.1027 32.1503C34.1027 32.1794 33.4044 33.0039 32.5508 33.9739C31.0958 35.6326 30.9988 35.7587 30.9988 36.137C30.9988 36.7966 31.6002 37.1943 32.1822 36.9033C32.5411 36.7287 36.809 31.8787 36.9545 31.4907C37.003 31.3646 37.0127 31.1512 36.9836 31.0154C36.906 30.705 32.512 25.6902 32.1725 25.535C31.6293 25.2731 30.9988 25.6805 30.9988 26.2819C30.9988 26.7087 31.0085 26.7281 32.7642 28.7262C33.5014 29.5604 34.1027 30.2685 34.1027 30.2976C34.1027 30.3267 32.027 30.3558 29.4953 30.3558C24.6356 30.3558 24.4319 30.3752 24.267 30.7923C24.17 31.0542 24.2088 31.5586 24.3349 31.7235Z" fill="#FF007A"/>
<defs>
<filter id="filter0_b_789_2574" x="-13.9817" y="-13.9817" width="88.9741" height="88.9744" filterUnits="userSpaceOnUse" color-interpolation-filters="sRGB">
<feFlood flood-opacity="0" result="BackgroundImageFix"/>
<feGaussianBlur in="BackgroundImageFix" stdDeviation="6.99084"/>
<feComposite in2="SourceAlpha" operator="in" result="effect1_backgroundBlur_789_2574"/>
<feBlend mode="normal" in="SourceGraphic" in2="effect1_backgroundBlur_789_2574" result="shape"/>
</filter>
</defs>
</svg>
