<svg width="95" height="64" viewBox="0 0 95 64" fill="none" xmlns="http://www.w3.org/2000/svg">
<path fill-rule="evenodd" clip-rule="evenodd" d="M92.0898 1.06802C92.4447 0.476851 93.2117 0.283776 93.8041 0.639464C94.3963 0.994144 94.588 1.76199 94.233 2.35316C90.1812 9.10684 83.906 15.1939 78.5831 19.6317C74.6286 22.929 71.2015 25.3144 69.5983 26.3876C70.2793 27.6085 70.7999 28.8918 71.0696 30.2007C72.5469 37.368 69.3199 42.7064 64.4853 46.7366C59.0792 51.2432 51.6658 54.1169 46.5677 56.0925C34.9726 60.5887 24.6439 63.0672 14.9905 63.6717C10.2571 63.9673 6.49116 63.727 3.14088 62.9145C1.63032 62.5486 0.587745 61.3117 0.485767 59.7655C0.383392 58.2258 1.24779 56.8718 2.69289 56.3117C11.3161 52.9696 19.3414 48.8603 26.5455 44.0963C31.9774 40.5047 36.4151 36.9358 40.1081 33.1849C41.5725 31.6996 42.8381 30.0108 44.1778 28.2234L44.1784 28.2225L44.184 28.215C46.4143 25.2416 48.7204 22.1671 52.0202 20.0967C54.9999 18.2294 58.5764 18.0271 62.092 19.5292C64.47 20.545 66.5913 22.2564 68.2076 24.3053C71.8022 21.8794 85.3753 12.2594 92.0898 1.06802ZM45.6682 53.762C54.637 50.2844 71.3248 43.8139 68.6228 30.705C67.8672 27.0444 64.7793 23.3931 61.1105 21.8256C59.1713 20.9975 56.2511 20.3923 53.3486 22.213C50.4412 24.0374 48.3765 26.79 46.1898 29.7053L46.1782 29.7206L46.1672 29.7354C44.8394 31.5065 43.4671 33.337 41.8883 34.9381C38.0704 38.8137 33.5028 42.4909 27.9248 46.1805C20.5707 51.0421 12.3845 55.2349 3.59481 58.6411C3.47658 58.6879 3.37982 58.7463 3.30115 58.8117C2.97702 59.0823 2.97035 59.4688 2.97929 59.601C2.99099 59.7697 3.0775 60.3285 3.72943 60.4867C6.82975 61.2376 10.3585 61.4577 14.8346 61.178C24.2274 60.5893 34.3125 58.1636 45.6648 53.7633L45.6682 53.762ZM23.2784 54.3329C23.5403 54.2735 49.39 48.2128 58.1508 35.9057C58.3508 35.6214 58.7408 35.5585 59.0211 35.7595C59.3021 35.9593 59.3677 36.3492 59.1679 36.6302C57.8655 38.4609 56.2185 40.1531 54.355 41.7068C43.286 50.9356 24.4827 55.3385 23.5585 55.5515C23.2221 55.6292 22.8875 55.419 22.8095 55.0816C22.7312 54.7449 22.9427 54.411 23.2784 54.3329Z" fill="#FF007A"/>
</svg>
