<svg width="74" height="75" viewBox="0 0 74 75" fill="none" xmlns="http://www.w3.org/2000/svg">
<rect x="0.316135" y="1.03855" width="73.3677" height="73.3677" rx="18.6519" stroke="white" stroke-opacity="0.2" stroke-width="0.632269"/>
<path d="M35.9609 22.5592L35.9591 22.5595C34.8717 22.7334 33.9404 23.0547 33.2337 23.4775L33.2334 23.4777C32.1209 24.1415 31.104 25.1524 30.4406 26.2457L30.4404 26.2461C30.1022 26.8017 29.7941 27.5874 29.6214 28.3148C29.5354 28.6856 29.479 29.2604 29.4625 29.85C29.446 30.4401 29.4703 31.0167 29.5355 31.3902L29.5356 31.3904C29.9281 33.6473 31.2824 35.5621 33.331 36.7371C35.3357 37.8861 38.0212 37.9877 40.2278 36.992L40.2281 36.9918C40.9523 36.6659 41.644 36.1609 42.3722 35.439C43.9831 33.8279 44.6851 32.0087 44.5868 29.7458C44.4944 27.7332 43.8161 26.1642 42.4149 24.7447L42.4146 24.7443C41.2973 23.6086 39.9058 22.8795 38.3668 22.6097L38.3663 22.6096C38.1394 22.5694 37.6394 22.5391 37.1282 22.5288C36.6131 22.5183 36.1402 22.5293 35.9609 22.5592ZM38.7196 24.1146L38.72 24.1147C39.7257 24.4097 40.6336 24.9655 41.423 25.7682C42.2127 26.5712 42.6569 27.3178 42.9826 28.368L42.9827 28.3683C43.0639 28.6315 43.1136 28.8136 43.1396 29.0632C43.1645 29.3024 43.1674 29.6003 43.1674 30.0959L43.1674 30.0978C43.1642 30.5874 43.1596 30.8858 43.1348 31.126C43.109 31.376 43.0618 31.5599 42.9834 31.8214L42.983 31.8225C42.676 32.8304 42.2247 33.5826 41.4441 34.3898C40.2694 35.6112 38.7047 36.2734 37.0345 36.2734L37.0333 36.2734C35.3823 36.2668 34.0126 35.7237 32.8314 34.6026L32.8313 34.6026C31.9206 33.738 31.3556 32.8483 31.0404 31.7555C30.9006 31.2802 30.8824 31.0404 30.8888 30.0632C30.8888 29.5524 30.8917 29.2464 30.9175 29.0016C30.9443 28.7462 30.9957 28.5606 31.08 28.2914C31.5355 26.8119 32.5834 25.5144 33.9843 24.6845L33.9848 24.6842C34.5116 24.3735 35.0246 24.1791 35.7296 24.021C36.0766 23.9423 36.6666 23.9217 37.2274 23.9393C37.7885 23.9569 38.3767 24.0146 38.7196 24.1146Z" fill="#8A30E4" stroke="#1A1535" stroke-width="0.57414"/>
<path d="M25.324 53.0145L25.324 53.0145C24.8969 52.5874 24.7153 52.3505 24.5365 51.9987C24.2758 51.4835 24.1237 51.0955 24.0335 50.6386C23.9421 50.1755 23.9116 49.6289 23.9116 48.7917C23.9116 44.8463 24.9047 41.681 26.6132 39.9237C27.5006 39.0122 28.555 38.4904 29.9701 38.282C30.0391 38.2723 30.3229 38.2596 30.6152 38.2531C30.8533 38.2499 30.9596 38.2546 31.0481 38.2742C31.1332 38.293 31.2164 38.3289 31.4017 38.4248L31.4023 38.4251C31.6104 38.5321 32.1147 38.8428 32.5359 39.1172L32.5361 39.1174C33.7032 39.876 34.4892 40.2407 35.6516 40.5427L35.6521 40.5429C36.0795 40.6532 36.6603 40.7048 37.2278 40.704C37.795 40.7032 38.3775 40.6499 38.8085 40.5363C39.9006 40.2533 40.7242 39.876 41.8898 39.1313L41.8906 39.1308C42.6462 38.6443 42.989 38.4276 43.2509 38.3272C43.4827 38.2383 43.6426 38.2428 44.0822 38.2654C46.0048 38.3718 47.5237 39.2572 48.611 40.8718C49.7066 42.4987 50.3715 44.8795 50.5293 47.972L25.324 53.0145ZM25.324 53.0145L25.325 53.0155M25.324 53.0145L25.325 53.0155M25.325 53.0155C25.9226 53.6192 26.4278 53.95 27.1397 54.2013L27.1397 54.2013M25.325 53.0155L27.1397 54.2013M27.1397 54.2013L27.1423 54.2022M27.1397 54.2013L27.1423 54.2022M27.1423 54.2022C27.176 54.2145 27.2079 54.2262 27.2384 54.2374C27.452 54.3157 27.594 54.3678 27.8041 54.4089C28.0478 54.4565 28.3881 54.4897 29.0151 54.5106C30.1854 54.5498 32.3 54.5456 36.5361 54.537C36.8399 54.5364 37.1547 54.5358 37.4807 54.5352C37.4808 54.5352 37.4808 54.5352 37.4808 54.5352L46.347 54.5162L46.8453 54.3637C46.8457 54.3636 46.8461 54.3635 46.8464 54.3634C47.5175 54.1521 47.8554 54.0023 48.2862 53.727L48.2869 53.7265M27.1423 54.2022L48.2869 53.7265M48.2869 53.7265C49.289 53.0905 50.0291 52.0806 50.3481 50.9382M48.2869 53.7265L50.3481 50.9382M40.1583 41.5981L40.1569 41.5986C38.2973 42.2473 36.5383 42.2841 34.6736 41.7223C33.7189 41.4328 32.8962 41.0325 31.7717 40.31C31.5128 40.1427 31.3096 40.0117 31.1428 39.9146C30.976 39.8175 30.8297 39.7448 30.6839 39.7021C30.3824 39.6137 30.128 39.67 29.7932 39.7441L29.7726 39.7487C28.8662 39.9449 28.1429 40.3484 27.5645 40.982C26.1051 42.5755 25.318 45.4263 25.3115 48.8103L25.3115 48.8108C25.3115 49.4292 25.3271 49.8572 25.3853 50.2149C25.445 50.5816 25.5479 50.8661 25.7091 51.2021L25.7099 51.2036L25.7099 51.2036C25.8504 51.4921 26.0994 51.8033 26.3721 52.0703C26.6454 52.3376 26.9655 52.583 27.2646 52.7253L40.1583 41.5981ZM40.1583 41.5981C41.0007 41.3091 41.6031 40.9974 42.7196 40.2783L42.7212 40.2773M40.1583 41.5981L42.7212 40.2773M42.7212 40.2773L43.6637 39.6787L43.7472 39.6256M42.7212 40.2773L43.7472 39.6256M43.7472 39.6256L43.8457 39.6353M43.7472 39.6256L43.8457 39.6353M43.8457 39.6353L44.2341 39.6735L44.2341 39.6735M43.8457 39.6353L44.2341 39.6735M44.2341 39.6735L44.2385 39.674M44.2341 39.6735L44.2385 39.674M44.2385 39.674C45.4945 39.817 46.5093 40.4074 47.2853 41.4508C48.0533 42.4835 48.58 43.9489 48.9021 45.8397C49.0002 46.4089 49.0773 47.2152 49.1198 47.9692C49.162 48.7186 49.1716 49.4436 49.1273 49.8423L49.1272 49.8424M44.2385 39.674L49.1272 49.8424M49.1272 49.8424C48.9416 51.5066 47.8899 52.6738 46.2457 53.0576M49.1272 49.8424L46.2457 53.0576M50.3481 50.9382C50.54 50.2238 50.5988 49.355 50.5293 47.9721L50.3481 50.9382ZM46.2457 53.0576C45.9803 53.1202 45.6943 53.148 44.5082 53.163C43.3126 53.1782 41.177 53.1798 37.1884 53.1798C36.6809 53.1798 36.2023 53.1799 35.7508 53.1799C32.0033 53.1805 30.1216 53.1808 29.0877 53.1357C28.509 53.1105 28.1728 53.0705 27.9154 53.0005C27.7104 52.9447 27.5565 52.8687 27.3934 52.7881C27.3514 52.7674 27.3089 52.7464 27.2647 52.7253L46.2457 53.0576Z" fill="#8A30E4" stroke="#1A1535" stroke-width="0.57414"/>
</svg>
