<svg width="24" height="24" viewBox="0 0 24 24" fill="none" xmlns="http://www.w3.org/2000/svg">
<path d="M10.0323 0.857437C9.96277 0.867361 9.73938 0.902098 9.53584 0.931871C8.66212 1.05593 7.47564 1.43306 6.65652 1.84493C3.74245 3.30882 1.78154 5.92892 1.161 9.18915C1.04185 9.81937 1.01703 11.5413 1.11632 12.241C1.439 14.474 2.4269 16.449 4.01053 18.027C6.41823 20.4189 9.81881 21.4312 13.1499 20.7464C14.5449 20.4586 15.9796 19.8184 17.0816 18.9947L17.4043 18.7515L18.2303 19.5672C20.5734 21.8995 21.0192 22.3054 21.1383 22.355C21.4064 22.4791 21.8582 22.4642 22.1263 22.3252C22.4638 22.1466 22.6376 21.8637 22.6574 21.4519C22.6723 21.1988 22.6574 21.0598 22.5929 20.9209C22.5333 20.7919 22.2663 20.4852 19.7891 18.0041L18.9731 17.1785L19.0972 17.0296C19.3404 16.7319 19.7922 16.0272 20.0404 15.5409C20.7006 14.2805 21.0481 13.025 21.1574 11.5363C21.3708 8.683 20.3085 5.85448 18.2532 3.79016C16.6895 2.22207 14.6988 1.21968 12.5095 0.902098C12.0279 0.832624 10.3996 0.807814 10.0323 0.857437ZM12.3804 3.08551C14.9221 3.48746 17.1958 5.21931 18.278 7.56648C19.678 10.6034 19.0525 14.0969 16.6845 16.4589C13.5768 19.5703 8.61247 19.5653 5.50976 16.449C4.32825 15.2581 3.57863 13.7942 3.29566 12.1318C3.20134 11.5611 3.19141 10.2709 3.27581 9.75982C3.58856 7.9188 4.3481 6.44003 5.61897 5.21434C6.9941 3.89437 8.65219 3.15002 10.5784 2.99123C10.9457 2.96145 11.9138 3.01108 12.3804 3.08551Z" fill="#FF007A" stroke="#FF007A" stroke-width="1.27106"/>
</svg>
